<?xml version="1.0" standalone="no"?>
<!DOCTYPE svg PUBLIC "-//W3C//DTD SVG 20010904//EN"
 "http://www.w3.org/TR/2001/REC-SVG-20010904/DTD/svg10.dtd">
<svg version="1.0" xmlns="http://www.w3.org/2000/svg"
 width="192.000000pt" height="192.000000pt" viewBox="0 0 192.000000 192.000000"
 preserveAspectRatio="xMidYMid meet">

<g transform="translate(0.000000,192.000000) scale(0.100000,-0.100000)"
fill="#000000" stroke="none">
<path d="M823 1716 c-131 -32 -260 -128 -330 -247 -48 -81 -77 -205 -70 -299
11 -135 60 -243 159 -346 l58 -60 -93 -76 c-50 -41 -102 -80 -114 -86 -14 -8
-90 -12 -227 -12 l-206 0 0 -295 0 -295 960 0 960 0 0 294 0 294 -138 4 -138
3 -118 100 c-65 55 -129 109 -143 121 l-26 20 41 54 c87 115 122 288 88 434
-45 189 -194 342 -382 390 -73 19 -207 20 -281 2z m123 -91 c8 -45 20 -45 28
1 l7 35 47 -7 c154 -22 288 -121 354 -260 27 -59 51 -158 40 -169 -3 -3 -18
-5 -34 -5 -15 0 -28 -4 -28 -9 0 -11 25 -21 51 -21 17 0 19 -5 14 -37 -14 -83
-37 -143 -76 -202 -22 -33 -45 -61 -51 -61 -6 0 -23 11 -40 25 -16 14 -36 25
-43 25 -8 0 -71 -43 -139 -95 -69 -52 -129 -95 -133 -95 -4 0 -39 25 -77 55
-75 60 -98 66 -132 34 l-23 -21 -28 20 c-90 64 -170 194 -180 296 -6 54 -5 54
22 58 41 4 45 28 4 28 l-32 0 6 54 c8 80 60 180 127 247 63 63 133 103 218
123 86 21 90 21 98 -19z m404 -1136 c0 -26 -28 -36 -46 -17 -14 13 -14 17 1
31 19 20 45 12 45 -14z m-530 1 c0 -13 -7 -20 -20 -20 -13 0 -20 -7 -20 -19 0
-10 9 -21 20 -24 11 -3 20 -12 20 -21 0 -9 -8 -16 -20 -16 -18 0 -20 -7 -20
-70 0 -68 -1 -70 -25 -70 -24 0 -25 2 -25 70 0 56 -3 70 -15 70 -8 0 -15 9
-15 20 0 11 7 20 15 20 10 0 15 10 15 28 0 37 17 52 57 52 26 0 33 -4 33 -20z
m-357 -1 c14 -6 30 -22 36 -35 9 -21 8 -24 -10 -24 -11 0 -30 7 -43 15 -27 18
-56 10 -56 -15 0 -12 15 -24 43 -35 55 -22 77 -42 77 -72 0 -39 -18 -62 -59
-74 -46 -14 -88 2 -108 41 -11 22 -10 25 8 28 11 2 29 -4 39 -13 25 -22 65
-16 65 10 0 13 -13 26 -40 38 -57 27 -75 46 -75 78 0 55 64 85 123 58z m717
-14 c0 -22 -4 -25 -35 -25 l-35 0 0 -100 c0 -93 -1 -100 -20 -100 -19 0 -20 7
-20 100 l0 100 -35 0 c-31 0 -35 3 -35 25 0 25 1 25 90 25 89 0 90 0 90 -25z
m-511 -71 c16 -21 21 -41 21 -91 0 -64 0 -64 -27 -62 -16 1 -38 -1 -49 -4 -32
-11 -72 8 -80 38 -9 38 19 65 68 65 32 0 39 3 36 18 -3 19 -58 31 -58 13 0 -6
-9 -11 -20 -11 -24 0 -26 17 -3 42 26 29 87 24 112 -8z m290 16 c22 -11 45
-64 37 -85 -4 -11 -21 -15 -65 -15 -48 0 -59 -3 -55 -14 9 -22 34 -27 70 -14
41 14 54 5 30 -21 -61 -67 -171 -2 -151 88 12 56 83 89 134 61z m261 -2 c0 -9
3 -9 12 0 19 19 48 15 48 -8 0 -11 -6 -20 -14 -20 -30 0 -46 -30 -46 -86 0
-47 -2 -54 -20 -54 -19 0 -20 7 -20 90 0 83 1 90 20 90 11 0 20 -5 20 -12z
m130 -78 c0 -89 0 -90 -25 -90 -25 0 -25 1 -25 90 0 89 0 90 25 90 25 0 25 -1
25 -90z m80 78 c0 -9 3 -9 12 0 7 7 26 12 44 12 39 0 84 -47 84 -88 0 -63 -64
-117 -110 -92 -28 15 -30 14 -30 -35 0 -38 -3 -45 -20 -45 -19 0 -20 7 -20
130 0 123 1 130 20 130 11 0 20 -5 20 -12z"/>
<path d="M925 1445 c-15 -53 -31 -98 -35 -100 -4 -3 -33 9 -64 26 -32 17 -59
29 -61 27 -2 -2 11 -30 30 -61 19 -32 35 -59 35 -61 0 -2 -43 -16 -95 -32 -52
-16 -94 -33 -92 -38 2 -5 37 -19 78 -32 50 -15 73 -26 71 -35 -2 -8 -26 -50
-53 -95 -84 -140 -77 -145 61 -49 52 35 97 61 101 57 4 -4 16 -40 28 -81 30
-110 31 -110 67 15 14 49 27 91 29 93 2 2 29 -11 61 -28 31 -18 58 -30 61 -27
3 3 -7 27 -23 53 -16 26 -29 52 -29 57 0 6 40 22 89 36 50 15 91 31 93 37 2 5
-32 20 -74 33 -43 13 -82 27 -87 31 -5 5 16 50 47 103 84 139 79 145 -49 56
-48 -33 -90 -58 -94 -55 -4 2 -17 40 -30 85 -12 44 -26 80 -30 80 -4 0 -19
-43 -35 -95z m88 -173 c48 -52 18 -132 -49 -132 -42 0 -84 37 -84 75 0 60 94
100 133 57z"/>
<path d="M580 299 c0 -16 5 -20 27 -17 17 2 29 10 31 21 3 13 -3 17 -27 17
-25 0 -31 -4 -31 -21z"/>
<path d="M880 376 c-11 -14 -7 -16 30 -16 29 0 40 4 38 13 -7 18 -53 20 -68 3z"/>
<path d="M1440 369 c-15 -28 -9 -59 15 -75 18 -12 24 -11 43 2 24 17 30 62 10
82 -19 19 -56 14 -68 -9z"/>
</g>
</svg>
